<svg width="51" height="35" viewBox="0 0 51 35" fill="none" xmlns="http://www.w3.org/2000/svg">
<path d="M34.6402 0H27.795C27.1575 0 26.5439 0.273338 26.0738 0.765348L18.2405 8.9655C18.2325 8.97461 18.2245 8.99283 18.2166 9.00194C16.8938 10.4233 16.9177 12.692 18.0492 14.1043C19.0612 15.3707 21.1889 15.7078 22.5197 14.3503C22.5277 14.3412 22.5436 14.3412 22.5516 14.332L28.9186 7.66259C29.4366 7.12502 30.2494 7.16147 30.7195 7.7537C31.1977 8.34593 31.1578 9.26617 30.6398 9.81285L28.56 11.9904L40.1625 22.76C40.3936 22.9786 40.6008 23.2155 40.792 23.4615V5.83122L36.4411 0.85646C35.9709 0.309784 35.3175 0 34.6402 0ZM43.35 5.84944V26.2496C43.35 27.8623 44.4895 29.1652 45.9 29.1652H51V5.84944H43.35ZM47.175 26.2496C46.4737 26.2496 45.9 25.5936 45.9 24.7918C45.9 23.99 46.4737 23.334 47.175 23.334C47.8762 23.334 48.45 23.99 48.45 24.7918C48.45 25.5936 47.8762 26.2496 47.175 26.2496ZM0 29.1561H5.1C6.51047 29.1561 7.65 27.8532 7.65 26.2405V5.84944H0V29.1561ZM3.825 23.334C4.52625 23.334 5.1 23.99 5.1 24.7918C5.1 25.5936 4.52625 26.2496 3.825 26.2496C3.12375 26.2496 2.55 25.5936 2.55 24.7918C2.55 23.9809 3.12375 23.334 3.825 23.334ZM38.5608 25.0287L26.6634 13.9858L24.2728 16.4914C21.9061 18.9606 18.2803 18.7237 16.1686 16.0905C14.025 13.4118 14.1923 9.26617 16.5192 6.82435L23.0377 0H16.3598C15.6825 0 15.037 0.309784 14.5589 0.85646L10.2 5.83122V26.2314H11.6583L18.87 33.6935C21.0534 35.7253 24.2648 35.3426 26.0419 32.8462L26.0578 32.8279L27.4842 34.2402C28.7512 35.4246 30.6239 35.1969 31.6519 33.7482L34.1541 30.2312L34.5844 30.6321C35.6761 31.6435 37.2858 31.4612 38.1703 30.2039L38.9273 29.1379C39.8198 27.8805 39.6525 26.0491 38.5608 25.0287Z" fill="#386AC0"/>
</svg>
