<svg width="41" height="38" viewBox="0 0 41 38" fill="none" xmlns="http://www.w3.org/2000/svg">
<path d="M28.3004 6.13445C28.3002 7.48811 27.8362 8.7868 27.0095 9.74743C25.1063 11.9611 23.2597 14.2693 21.2843 16.402C21.0638 16.6338 20.7745 16.759 20.4762 16.7519C20.178 16.7448 19.8935 16.6058 19.6814 16.3637L13.9913 9.74968C13.1637 8.78872 12.6992 7.48909 12.6992 6.13445C12.6992 4.77981 13.1637 3.48018 13.9913 2.51922C14.404 2.03955 14.895 1.65885 15.4358 1.39905C15.9766 1.13926 16.5567 1.00551 17.1425 1.00551C17.7283 1.00551 18.3084 1.13926 18.8492 1.39905C19.3901 1.65885 19.881 2.03955 20.2937 2.51922L20.5004 2.75994L20.7071 2.51922C21.3266 1.79677 22.1185 1.30334 22.9818 1.10175C23.8452 0.900163 24.741 0.999532 25.5553 1.38721C26.3696 1.77488 27.0654 2.43333 27.5543 3.27872C28.0431 4.12411 28.3028 5.11821 28.3004 6.13445Z" stroke="black" stroke-width="2" stroke-linejoin="round"/>
<path d="M32.2 37L39.6568 28.3972C39.8762 28.1444 39.9997 27.8013 40 27.4434V15.6281C40 14.7331 39.6918 13.8748 39.1432 13.2419C38.5947 12.6091 37.8507 12.2536 37.075 12.2536C36.2992 12.2536 35.5552 12.6091 35.0067 13.2419C34.4581 13.8748 34.15 14.7331 34.15 15.6281V25.7516" stroke="black" stroke-width="2" stroke-linecap="round" stroke-linejoin="round"/>
<path d="M32.2 28.0013L33.8731 26.0711C33.9613 25.9701 34.0313 25.8499 34.0788 25.7174C34.1264 25.5849 34.1506 25.4428 34.15 25.2994C34.1486 25.0974 34.0992 24.8997 34.007 24.7279C33.9148 24.5561 33.7835 24.4169 33.6274 24.3253L32.7635 23.8282C32.0317 23.406 31.2033 23.2601 30.3956 23.4111C29.5879 23.5621 28.8418 24.0023 28.2629 24.6695L26.5177 26.683C25.7863 27.5266 25.3752 28.6708 25.375 29.864V37M8.8 37L1.3432 28.3972C1.12372 28.1444 1.00027 27.8013 1 27.4434V15.6281C1 14.7331 1.30817 13.8748 1.85671 13.2419C2.40526 12.6091 3.14924 12.2536 3.925 12.2536C4.70076 12.2536 5.44474 12.6091 5.99329 13.2419C6.54183 13.8748 6.85 14.7331 6.85 15.6281V25.7516" stroke="black" stroke-width="2" stroke-linecap="round" stroke-linejoin="round"/>
<path d="M8.8001 28.0013L7.127 26.0711C6.95229 25.8644 6.85314 25.5881 6.8501 25.2994C6.8501 24.8877 7.0529 24.512 7.3727 24.3253L8.23655 23.8281C8.9684 23.406 9.79682 23.2601 10.6045 23.4111C11.4122 23.5621 12.1583 24.0023 12.7371 24.6695L14.4824 26.683C15.2138 27.5266 15.6249 28.6708 15.6251 29.864V37" stroke="black" stroke-width="2" stroke-linecap="round" stroke-linejoin="round"/>
</svg>
