<svg width="42" height="35" viewBox="0 0 42 35" fill="none" xmlns="http://www.w3.org/2000/svg">
<path d="M28.4997 10.7258C27.2716 4.4244 24.3751 0 21.0042 0C17.6334 0 14.7368 4.4244 13.5088 10.7258H28.4997ZM12.8736 17.5C12.8736 19.0665 12.9752 20.5696 13.1531 22.0161H28.8469C29.0248 20.5696 29.1264 19.0665 29.1264 17.5C29.1264 15.9335 29.0248 14.4304 28.8469 12.9839H13.1531C12.9752 14.4304 12.8736 15.9335 12.8736 17.5ZM40.3739 10.7258C37.9516 5.93448 33.0478 2.22984 26.9921 0.733871C29.0587 3.11895 30.4816 6.71069 31.2269 10.7258H40.3739ZM15.0079 0.733871C8.96068 2.22984 4.0484 5.93448 1.6346 10.7258H10.7816C11.5185 6.71069 12.9413 3.11895 15.0079 0.733871ZM41.2801 12.9839H31.5656C31.7435 14.4657 31.8451 15.9829 31.8451 17.5C31.8451 19.0171 31.7435 20.5343 31.5656 22.0161H41.2716C41.7374 20.5696 42 19.0665 42 17.5C42 15.9335 41.7374 14.4304 41.2801 12.9839ZM10.1633 17.5C10.1633 15.9829 10.265 14.4657 10.4428 12.9839H0.728373C0.271022 14.4304 0 15.9335 0 17.5C0 19.0665 0.271022 20.5696 0.728373 22.0161H10.4344C10.265 20.5343 10.1633 19.0171 10.1633 17.5ZM13.5088 24.2742C14.7368 30.5756 17.6334 35 21.0042 35C24.3751 35 27.2716 30.5756 28.4997 24.2742H13.5088ZM27.0006 34.2661C33.0478 32.7702 37.9601 29.0655 40.3823 24.2742H31.2353C30.49 28.2893 29.0672 31.881 27.0006 34.2661ZM1.6346 24.2742C4.05687 29.0655 8.96068 32.7702 15.0163 34.2661C12.9498 31.881 11.5269 28.2893 10.7816 24.2742H1.6346Z" fill="#386AC0"/>
</svg>
