<svg width="44" height="58" viewBox="0 0 44 58" fill="none" xmlns="http://www.w3.org/2000/svg">
<g clip-path="url(#clip0_1334_41)">
<path d="M30.25 10.875C30.25 4.86883 26.5564 0 22 0C17.4436 0 13.75 4.86883 13.75 10.875C13.75 16.8812 17.4436 21.75 22 21.75C26.5564 21.75 30.25 16.8812 30.25 10.875ZM20.0741 27.3121C14.9755 23.1977 6.71688 22.0672 2.56094 21.7557C1.16445 21.6514 0 23.0539 0 24.8245V50.0635C0 51.6868 0.996016 53.0405 2.27648 53.1278C6.02852 53.3872 13.6194 54.3376 18.8659 57.821C19.6711 58.3557 20.6259 57.6273 20.6259 56.4764V28.6103C20.625 28.0813 20.4265 27.5964 20.0741 27.3121ZM41.4391 21.7557C37.284 22.0661 29.0245 23.1977 23.9267 27.3121C23.5744 27.5964 23.3759 28.1005 23.3759 28.6296V56.473C23.3759 57.6273 24.3332 58.3568 25.141 57.821C30.3866 54.341 37.9732 53.3906 41.7244 53.1312C43.0048 53.0428 44.0009 51.6891 44.0009 50.0658V24.8245C44 23.0539 42.8355 21.6514 41.4391 21.7557Z" fill="#386AC0"/>
</g>
<defs>
<clipPath id="clip0_1334_41">
<rect width="44" height="58" fill="white"/>
</clipPath>
</defs>
</svg>
