<svg width="48" height="40" viewBox="0 0 48 40" fill="none" xmlns="http://www.w3.org/2000/svg">
<path d="M19.2 26.25H19.1985C19.1985 24.9859 19.299 25.568 12.8197 12.0695C11.496 9.3125 7.7055 9.30703 6.3795 12.0695C-0.1545 25.6836 0.0015 25.0258 0.0015 26.25H0C0 29.7016 4.29825 32.5 9.6 32.5C14.9018 32.5 19.2 29.7016 19.2 26.25ZM9.6 13.75L15 25H4.2L9.6 13.75ZM47.9985 26.25C47.9985 24.9859 48.099 25.568 41.6198 12.0695C40.296 9.3125 36.5055 9.30703 35.1795 12.0695C28.6455 25.6836 28.8015 25.0258 28.8015 26.25H28.8C28.8 29.7016 33.0983 32.5 38.4 32.5C43.7018 32.5 48 29.7016 48 26.25H47.9985ZM33 25L38.4 13.75L43.8 25H33ZM39.6 35H26.4V11.9727C28.1633 11.1688 29.487 9.51328 29.8793 7.5H39.6C40.263 7.5 40.8 6.94063 40.8 6.25V3.75C40.8 3.05937 40.263 2.5 39.6 2.5H28.773C27.678 0.990625 25.9568 0 24 0C22.0433 0 20.322 0.990625 19.227 2.5H8.4C7.737 2.5 7.2 3.05937 7.2 3.75V6.25C7.2 6.94063 7.737 7.5 8.4 7.5H18.1208C18.513 9.5125 19.836 11.1688 21.6 11.9727V35H8.4C7.737 35 7.2 35.5594 7.2 36.25V38.75C7.2 39.4406 7.737 40 8.4 40H39.6C40.263 40 40.8 39.4406 40.8 38.75V36.25C40.8 35.5594 40.263 35 39.6 35Z" fill="#386AC0"/>
</svg>
