<svg width="45" height="49" viewBox="0 0 45 49" fill="none" xmlns="http://www.w3.org/2000/svg">
<path d="M45 34.4531V2.29688C45 1.02402 43.9252 0 42.5893 0H9.64286C4.3192 0 0 4.11523 0 9.1875V39.8125C0 44.8848 4.3192 49 9.64286 49H42.5893C43.9252 49 45 47.976 45 46.7031V45.1719C45 44.4541 44.6484 43.8033 44.106 43.3822C43.6842 41.9084 43.6842 37.707 44.106 36.2332C44.6484 35.8217 45 35.1709 45 34.4531ZM12.8571 12.8242C12.8571 12.5084 13.1283 12.25 13.4598 12.25H34.7545C35.0859 12.25 35.3571 12.5084 35.3571 12.8242V14.7383C35.3571 15.0541 35.0859 15.3125 34.7545 15.3125H13.4598C13.1283 15.3125 12.8571 15.0541 12.8571 14.7383V12.8242ZM12.8571 18.9492C12.8571 18.6334 13.1283 18.375 13.4598 18.375H34.7545C35.0859 18.375 35.3571 18.6334 35.3571 18.9492V20.8633C35.3571 21.1791 35.0859 21.4375 34.7545 21.4375H13.4598C13.1283 21.4375 12.8571 21.1791 12.8571 20.8633V18.9492ZM38.3103 42.875H9.64286C7.86495 42.875 6.42857 41.5064 6.42857 39.8125C6.42857 38.1281 7.875 36.75 9.64286 36.75H38.3103C38.1194 38.3865 38.1194 41.2385 38.3103 42.875Z" fill="#386AC0"/>
</svg>
