<svg width="50" height="56" viewBox="0 0 50 56" fill="none" xmlns="http://www.w3.org/2000/svg">
<path d="M33.9282 17.1613C32.4662 7.07903 29.0179 0 25.005 0C20.9921 0 17.5439 7.07903 16.0819 17.1613H33.9282ZM15.3257 28C15.3257 30.5065 15.4467 32.9113 15.6584 35.2258H34.3416C34.5533 32.9113 34.6743 30.5065 34.6743 28C34.6743 25.4935 34.5533 23.0887 34.3416 20.7742H15.6584C15.4467 23.0887 15.3257 25.4935 15.3257 28ZM48.0641 17.1613C45.1805 9.49516 39.3426 3.56774 32.1335 1.17419C34.5937 4.99032 36.2876 10.7371 37.1748 17.1613H48.0641ZM17.8665 1.17419C10.6675 3.56774 4.81952 9.49516 1.94596 17.1613H12.8352C13.7124 10.7371 15.4063 4.99032 17.8665 1.17419ZM49.143 20.7742H37.5781C37.7899 23.1452 37.9109 25.5726 37.9109 28C37.9109 30.4274 37.7899 32.8548 37.5781 35.2258H49.1329C49.6874 32.9113 50 30.5065 50 28C50 25.4935 49.6874 23.0887 49.143 20.7742ZM12.0992 28C12.0992 25.5726 12.2202 23.1452 12.4319 20.7742H0.86711C0.322646 23.0887 0 25.4935 0 28C0 30.5065 0.322646 32.9113 0.86711 35.2258H12.4219C12.2202 32.8548 12.0992 30.4274 12.0992 28ZM16.0819 38.8387C17.5439 48.921 20.9921 56 25.005 56C29.0179 56 32.4662 48.921 33.9282 38.8387H16.0819ZM32.1436 54.8258C39.3426 52.4323 45.1906 46.5048 48.0742 38.8387H37.1849C36.2976 45.2629 34.6037 51.0097 32.1436 54.8258ZM1.94596 38.8387C4.8296 46.5048 10.6675 52.4323 17.8766 54.8258C15.4164 51.0097 13.7225 45.2629 12.8352 38.8387H1.94596Z" fill="#386AC0"/>
</svg>
