<svg width="62" height="55" viewBox="0 0 62 55" fill="none" xmlns="http://www.w3.org/2000/svg">
<path d="M24.8 36.0938H24.7981C24.7981 34.3557 24.9279 35.156 16.5588 16.5956C14.849 12.8047 9.95294 12.7972 8.24019 16.5956C-0.199563 35.3149 0.0019375 34.4104 0.0019375 36.0938H0C0 40.8396 5.55191 44.6875 12.4 44.6875C19.2481 44.6875 24.8 40.8396 24.8 36.0938ZM12.4 18.9062L19.375 34.375H5.425L12.4 18.9062ZM61.9981 36.0938C61.9981 34.3557 62.1279 35.156 53.7588 16.5956C52.049 12.8047 47.1529 12.7972 45.4402 16.5956C37.0004 35.3149 37.2019 34.4104 37.2019 36.0938H37.2C37.2 40.8396 42.7519 44.6875 49.6 44.6875C56.4481 44.6875 62 40.8396 62 36.0938H61.9981ZM42.625 34.375L49.6 18.9062L56.575 34.375H42.625ZM51.15 48.125H34.1V16.4624C36.3775 15.357 38.0874 13.0808 38.594 10.3125H51.15C52.0064 10.3125 52.7 9.54336 52.7 8.59375V5.15625C52.7 4.20664 52.0064 3.4375 51.15 3.4375H37.1651C35.7508 1.36211 33.5275 0 31 0C28.4725 0 26.2492 1.36211 24.8349 3.4375H10.85C9.99362 3.4375 9.3 4.20664 9.3 5.15625V8.59375C9.3 9.54336 9.99362 10.3125 10.85 10.3125H23.406C23.9126 13.0797 25.6215 15.357 27.9 16.4624V48.125H10.85C9.99362 48.125 9.3 48.8941 9.3 49.8438V53.2812C9.3 54.2309 9.99362 55 10.85 55H51.15C52.0064 55 52.7 54.2309 52.7 53.2812V49.8438C52.7 48.8941 52.0064 48.125 51.15 48.125Z" fill="#386AC0"/>
</svg>
